<svg width="600" height="200" viewBox="0 0 600 200" fill="none" xmlns="http://www.w3.org/2000/svg">
<path fill-rule="evenodd" clip-rule="evenodd" d="M424 99.5L467 155H423.778L389 111L363 143.5H378.5L389 130L397 139.5L385 155H337L380 100L387.5 90.5L428.5 143H444L410.5 100L444 58H428.5L402.5 90.5L377 58H362L380 81L372.537 90.4537L337 45H382L403.268 71.5L424 45H467L424 99.5Z" fill="#303333"/>
<path fill-rule="evenodd" clip-rule="evenodd" d="M317 45H235V57H317V69H247H235V81V142V154H247H259H271V142V105H304V93H271H259V105V142H247V81H317H329V69V57V45H317Z" fill="#303333"/>
<path fill-rule="evenodd" clip-rule="evenodd" d="M215 45H133V57H215V69H145H133V81V142V154H145H157H169V142V105H202V93H169H157V105V142H145V81H215H227V69V57V45H215Z" fill="#303333"/>
</svg>
